<?xml version="1.0" standalone="no"?>
<!DOCTYPE svg PUBLIC "-//W3C//DTD SVG 20010904//EN"
 "http://www.w3.org/TR/2001/REC-SVG-20010904/DTD/svg10.dtd">
<svg version="1.0" xmlns="http://www.w3.org/2000/svg"
 width="700.000000pt" height="700.000000pt" viewBox="0 0 700.000000 700.000000"
 preserveAspectRatio="xMidYMid meet">
<metadata>
Created by potrace 1.11, written by Peter Selinger 2001-2013
</metadata>
<g transform="translate(0.000000,700.000000) scale(0.100000,-0.100000)"
fill="#000000" stroke="none">
<path d="M3059 6766 c-2 -3 -16 -7 -29 -9 -352 -67 -830 -250 -1134 -435 -37
-23 -70 -42 -72 -42 -6 0 -198 -133 -244 -169 -97 -77 -178 -146 -245 -210
-94 -90 -215 -221 -215 -232 0 -11 141 -197 283 -372 54 -67 110 -138 125
-157 14 -19 40 -51 57 -71 16 -19 39 -46 50 -60 85 -103 299 -353 325 -379 3
-3 23 -25 44 -50 231 -265 612 -652 871 -885 55 -49 105 -94 111 -100 15 -13
66 -57 85 -72 13 -11 15 77 16 810 1 452 4 1185 8 1630 6 784 5 807 -13 807
-10 0 -21 -2 -23 -4z"/>
<path d="M5999 5603 c-78 -109 -362 -475 -394 -509 -12 -13 -80 -93 -170 -199
-58 -68 -162 -187 -215 -245 -8 -9 -53 -59 -100 -111 -46 -52 -91 -101 -100
-110 -8 -8 -64 -69 -125 -134 -198 -212 -433 -453 -839 -858 -219 -219 -397
-399 -395 -401 2 -1 92 -76 199 -165 348 -291 539 -440 840 -657 245 -177 653
-448 886 -588 243 -147 383 -230 405 -241 25 -13 28 -11 86 53 34 37 74 83 89
102 16 19 31 37 34 40 3 3 17 21 30 40 13 19 27 37 30 40 12 9 140 198 140
206 0 4 6 15 14 23 31 36 140 251 224 441 43 98 133 370 148 449 3 14 7 28 9
31 2 4 7 22 10 41 3 19 12 66 20 104 8 39 17 88 20 110 3 22 8 54 10 70 3 17
7 43 10 59 26 169 27 736 0 896 -2 14 -7 47 -10 73 -3 27 -15 95 -26 150 -12
56 -22 110 -24 119 -9 42 -50 182 -82 278 -60 176 -132 335 -236 520 -27 48
-171 260 -194 285 -10 11 -37 43 -59 70 -56 67 -129 145 -136 145 -4 0 -48
-57 -99 -127z"/>
<path d="M773 5155 c-7 -8 -13 -17 -13 -20 0 -4 -11 -21 -24 -38 -67 -89 -209
-395 -264 -567 -54 -168 -103 -400 -117 -550 -4 -36 -8 -83 -10 -105 -6 -63
-6 -364 0 -430 3 -33 7 -82 10 -110 22 -244 124 -652 209 -839 14 -31 26 -61
26 -66 0 -16 159 -323 214 -412 50 -82 193 -277 251 -343 14 -16 40 -47 58
-67 18 -21 35 -38 38 -38 19 0 727 552 974 759 61 51 132 111 160 134 54 46
206 177 271 236 22 20 73 65 114 101 40 36 91 81 114 101 l40 37 -114 112
c-420 410 -813 809 -946 959 -21 25 -48 54 -59 65 -11 12 -56 61 -100 110 -44
49 -85 94 -90 100 -125 137 -604 716 -710 858 -17 23 -22 25 -32 13z"/>
<path d="M2915 2359 c-185 -163 -191 -168 -270 -234 -33 -27 -62 -52 -65 -55
-3 -3 -30 -25 -60 -50 -76 -62 -88 -72 -141 -116 -25 -22 -94 -77 -153 -124
-60 -47 -128 -101 -151 -120 -22 -19 -54 -44 -69 -55 -16 -11 -33 -25 -40 -30
-6 -6 -38 -31 -71 -55 -33 -25 -62 -47 -65 -50 -3 -3 -77 -59 -164 -124 l-159
-119 24 -18 c13 -11 77 -56 141 -102 345 -242 728 -432 1080 -535 97 -29 275
-72 296 -72 5 0 10 96 12 213 4 360 19 1349 24 1660 2 70 0 127 -3 127 -3 -1
-78 -64 -166 -141z"/>
<path d="M3638 2333 c-2 -5 -3 -30 -2 -58 10 -311 18 -873 17 -1316 l0 -546
101 3 c162 4 382 18 461 29 17 2 71 9 120 15 367 46 748 172 1047 347 65 38
218 147 218 154 0 4 -33 26 -72 49 -57 33 -379 229 -482 293 -47 29 -441 291
-446 296 -3 3 -27 21 -55 40 -64 44 -478 352 -485 360 -3 4 -25 22 -50 41 -61
48 -76 59 -124 100 -23 19 -64 53 -91 75 -66 54 -117 97 -133 113 -16 14 -20
15 -24 5z"/>
</g>
</svg>
