<?xml version="1.0" standalone="no"?>
<!DOCTYPE svg PUBLIC "-//W3C//DTD SVG 1.1//EN" "http://www.w3.org/Graphics/SVG/1.1/DTD/svg11.dtd" >
<svg xmlns="http://www.w3.org/2000/svg">
<metadata>
This is a custom SVG webfont generated by Font Squirrel.
Copyright   : A font font by wwwuddiuddicom
</metadata>
<defs>
<font id="webfontTO44lxN7" horiz-adv-x="888" >
<font-face units-per-em="2048" ascent="1638" descent="-410" />
<missing-glyph horiz-adv-x="1024" />
<glyph unicode=" "  horiz-adv-x="1024" />
<glyph unicode="&#x09;" horiz-adv-x="1024" />
<glyph unicode="&#xa0;" horiz-adv-x="1024" />
<glyph unicode="!" horiz-adv-x="421" d="M403 1235q-16 100 -30 125q-27 51 -105 51q-55 -139 -47 -319q-61 -420 -61 -482q0 -117 88 -116q4 6 8 18h16q0 -10 7 -20h14v12h14q12 35 21 35q25 121 45 335q14 181 30 361zM287 66v-3q0 80 -39 119q-23 6 -41 6q-78 0 -78 -92t64 -92q43 1 94 62z" />
<glyph unicode="&#x22;" horiz-adv-x="841" d="M801 1190q-14 59 -25 131q-68 104 -92 133q-57 70 -129 96q-94 -25 -94 -75q0 -53 86 -115q68 -92 67 -160q0 -41 -28 -95l-60 -108q27 -63 70 -63q53 0 145 110h9q6 21 51 146zM389 1051h-6q-2 29 -2 88q-37 133 -133 210.5t-234 77.5q-4 -6 -4 -14q-18 -6 -14 -6v-8 q-4 -4 -8 -6q-4 -18 -4 -33q0 -86 141 -119q82 -82 82 -170q0 -55 -44 -147.5t-44 -132.5q0 -29 12 -54h14q0 -12 2 -16q12 2 29 -5t21 -18q53 0 118 138q56 117 74 215z" />
<glyph unicode="#" horiz-adv-x="1828" d="M1714 702l-4 -2q-25 82 -102 82q-53 0 -153.5 -41t-125.5 -41q-20 45 -20 60q0 16 8 35q152 45 313 63q2 8 15 29q-4 0 20 6q2 16 6 33q4 27 15 26q4 12 4 23q0 55 -121 55q-74 0 -194 -22.5t-109 -22.5q-51 125 -54 129q-43 72 -120 78q-53 -53 -54 -105q0 -31 21 -77 q27 -63 33 -86l-224 -74q-139 -43 -209 -43q-14 72 -26 143q-23 84 -64 137q-29 12 -51 13q-72 0 -72 -117q0 -55 17 -139q8 -41 18 -84q-43 -31 -209 -53l-217 -25q-33 -49 -32 -82q0 -74 157 -74q74 0 193 17q127 18 131 18q4 -25 8 -69l-322 -74q-233 -68 -143 -191 q31 -18 78 -18q59 0 192 39q145 45 209 51l25 -149q10 -47 47 -111h27q18 -18 32 -19q59 0 60 314q55 8 473 108q47 -176 63 -221q47 -125 121 -180q35 0 47 -14q8 0 17 6q0 8 6 20q12 4 39 8v19q6 6 6 20q0 41 -57 201q-59 168 -66 211q12 4 127 51q90 37 156 47 q14 27 26 27q0 12 4 20.5t16.5 23.5t18.5 21zM1151 635q-43 -43 -227 -80q-156 -33 -226 -33q-8 16 -14 80q45 33 197 74l243 59q15 -61 27 -100z" />
<glyph unicode="$" horiz-adv-x="980" d="M926 1198v-16q4 49 10 75q-49 49 -127 50q-117 0 -285 -115q-6 -4 -6 2q0 4 16.5 63.5t16.5 98.5q0 98 -94 98q-41 0 -101 -18q-25 -8 -18 -197q6 -195 0 -201q-72 -102 -68 -276q-6 -29 -6 -64q0 -68 26.5 -222t26.5 -216q0 -135 -94 -139q-147 16 -178 -15q-10 2 -8 3 q-4 -16 -14 -52q10 -25 53 -73q104 -31 196 -15q20 4 25 -69q4 -115 8 -144q16 -78 70 -80q147 -6 147 201q0 47 -8 119t-8 84q0 14 4 18q53 51 53 133q0 74 -62.5 246t-62.5 252q0 23 4 43q0 127 76 209q55 61 182 119z" />
<glyph unicode="%" horiz-adv-x="1210" d="M520 1022q-10 94 -87 155.5t-169 61.5q-119 0 -170 -100h-10q-47 -94 -54 -124t-7 -122q51 -92 65 -107q33 -31 123 -32q264 98 309 268zM362 1024q-70 -66 -92 -80q-35 -23 -88 -31q-18 29 -18 66q0 51 30.5 91t69.5 40q57 0 98 -86zM846 1210v-20l-25 92q-20 10 -41 10 q-43 0 -73 -53q-2 -4 -31 -70q-31 -174 -148 -434l-188 -401l-72 -148q-51 -115 -51 -174q0 -45 31 -59q33 4 41 -2q0 -14 4 -21q18 10 55 35q37 145 176 420q150 299 197 444q25 45 57.5 183.5t67.5 197.5zM1061 457v-4q-55 37 -125 36q-96 0 -174 -65.5t-78 -153.5 q0 -37 14 -71l-1 -3q-1 -3 -3 -6q41 -94 58.5 -118.5t91.5 -85.5q90 -14 102 -15q57 0 125 76q43 133 43 225q0 109 -53 185zM958 334q6 -94 5 -109q-4 -53 -33 -102q-49 6 -83 48t-34 89q0 82 90 82q24 0 55 -8z" />
<glyph unicode="&#x26;" horiz-adv-x="1388" d="M1323 997v-6q-4 18 -4 58q-41 41 -143 59q-76 8 -152 18q-53 53 -127 54q-96 0 -96 -78q0 -16 6 -35q16 -205 -8 -426q-20 -199 -41 -199q-106 41 -213 115q-139 98 -139 176q152 250 153 352q0 123 -162 136q-135 -14 -211 -140q-63 -104 -63 -235q6 -35 43 -90.5 t37 -73.5q-74 -150 -74 -356q0 -266 133 -351q96 -45 189 -45q254 0 432 318q16 -2 106 -25q70 -18 117 -18q59 0 108 24q14 43 15 74q0 70 -107 76q-143 10 -178 33q18 168 33 268l12 274q133 -37 185 -36q102 -1 149 79zM713 268q-51 -82 -129 -139q-84 -61 -162 -61 q-51 0 -94 28q-41 129 -41 252q0 88 20 182q-6 0 31 7q80 -94 164 -148q68 -43 207 -100q0 -15 4 -21zM397 1028q-41 -70 -86 -158h-12q0 139 98 187v-29z" />
<glyph unicode="'" horiz-adv-x="473" d="M451 1114q-2 18 -5.5 54t-5.5 53q-158 123 -252 122q-20 0 -38 -6q-43 -53 -44 -88q0 -37 54 -66l106 -59q-14 -78 -69 -176q-76 -139 -80 -147q-6 -47 21.5 -82t60.5 -35q29 0 37 31q25 0 116 184q76 156 99 215z" />
<glyph unicode="(" horiz-adv-x="669" d="M639 1257v-22l-12 53q-25 37 -62 37q-94 0 -262 -246q-111 -166 -166 -284q-49 -219 -49 -383q0 -352 223 -521q16 -4 38 8.5t52 14.5q-6 25 -6 31q4 0 8 4q12 20 13 41q0 53 -62 104q-92 156 -92 402q0 319 160 479q23 37 108 133q78 88 109 149z" />
<glyph unicode=")" horiz-adv-x="585" d="M557 653l-2 -8q-20 264 -162 551l-114 182h-11q-4 12 -31.5 33t-27.5 47q-80 41 -80 80q-129 0 -129 -63q0 -51 150 -215q223 -334 223 -658q0 -260 -150 -502l-71 -92q-29 -45 -29 -88q70 -51 102 -51q29 0 60 37q18 20 77 108q162 240 195 639z" />
<glyph unicode="*" horiz-adv-x="1212" d="M1036 739q-25 82 -101 108l-155 52q20 0 123 57q121 68 121 121q0 33 -49 58v12q-68 0 -152 -37l-123 -59q0 35 51.5 130t51.5 142q0 53 -49 90q-80 -18 -136 -106l-69 -144q-18 59 -29 82q-20 51 -49 80q-20 2 -37 2q-88 0 -88 -80q0 -43 26.5 -123t26.5 -94 q-39 0 -119.5 17.5t-115.5 17.5q-61 0 -96 -35q-4 -20 -5 -37q0 -61 70 -88l131 -33v-12q-80 -47 -80 -98q0 -63 103 -64q23 0 47 4q0 -35 -35 -104l-35 -68q0 -61 19 -73q33 -20 36 -31q12 0 31 6q6 -6 15 -6q33 0 94 113l69 149h15q6 -104 63 -254q27 -4 49 -28q2 0 27 6 q16 2 33 -6q0 4 4 12q39 0 39 65q0 41 -17.5 128t-19.5 106q61 -16 121 -35q74 -18 133 -18q0 16 33 20q2 18 6 27.5t22 27.5z" />
<glyph unicode="+" horiz-adv-x="833" d="M793 522l-2 -8q-12 100 -125 100q-29 0 -86.5 -8t-79.5 -8q-35 143 -62 279q-29 84 -37 98q-29 55 -69 55q-27 0 -60 -22q-12 -20 -12 -64q0 -68 33 -217q37 -156 37 -174q-14 -4 -162 -43q-86 -23 -139 -55q-8 -25 -9 -43q0 -66 117 -66q45 0 127 11.5t96 11.5 q27 -53 43 -179q18 -158 23 -174h10v-12q4 -6 23 -10q2 2 5 7t7 9h18q10 -14 15.5 -18t25.5 -6l7 24q33 16 32 80q0 47 -22.5 154.5t-22.5 142.5q0 29 11 39q4 0 102 8q66 6 123 29q0 6 14.5 26.5t18.5 32.5z" />
<glyph unicode="," horiz-adv-x="524" d="M500 106v-24q0 68 -25 223q-70 43 -121 43q-104 0 -104 -143q0 -127 65 -148q-8 -35 -41 -123q-35 -96 -45 -94q0 -84 68 -84q53 0 96 60q2 0 5 2t3 4l33 57l37 103q19 58 29 124z" />
<glyph unicode="-" d="M846 768h-2q-18 37 -51 45q-14 4 -66 4q-311 -35 -393 -49q-336 -59 -336 -145q0 -35 53 -72q121 10 352 47q248 39 365 51q14 6 45 21q6 6 10.5 43t22.5 55z" />
<glyph unicode="." horiz-adv-x="278" d="M266 98v-2q-10 55 -16 70q-12 27 -49 55q-88 0 -105 -33q-8 -14 -8 -98q68 -55 90 -55q39 0 88 63z" />
<glyph unicode="/" horiz-adv-x="706" d="M127 70v-7q37 162 145 412q154 344 178 415l46 142q41 113 77 125q80 0 97 -41q4 -12 4 -90q-133 -381 -154 -434q-96 -244 -201 -404l-24 -133q-10 -20 -92 -65q0 2 -15 16q-2 -10 -8 -16q-27 14 -33 18q-14 17 -20 62z" />
<glyph unicode="0" horiz-adv-x="1103" d="M1051 561l-4 -4q-35 266 -267 414q-51 86 -149 86q-111 0 -269 -105q-117 -80 -194 -166h-8q-2 -2 -5 -8l-5 -10q-152 -166 -152 -313q0 -82 55 -267q102 -209 320 -208q123 0 278 67q115 16 257.5 196.5t142.5 317.5zM889 571q-78 -231 -213 -319q-111 -72 -357 -90 q-102 14 -139 82q-20 35 -45 176q0 139 128 279.5t278 177.5q35 -29 96 -43l117 -27q43 -43 84 -111q43 -76 51 -125z" />
<glyph unicode="1" horiz-adv-x="528" d="M496 983l-2 -20l-19 155q-18 74 -84 74q-31 0 -72 -14l-245 -164q-31 -6 -27 -6v-13q-2 0 -8 -3l-10 -5q-10 -68 -11 -78q0 -66 97 -65l98 47q86 43 106 72q8 -8 9 -37q0 -2 -39 -496q-2 -33 -23 -186q-18 -125 -18 -193t14 -108q72 -18 70 -19q18 0 45 8q4 20 8 33 q4 -4 8 2q20 31 31 158q8 98 14 199z" />
<glyph unicode="2" horiz-adv-x="716" d="M682 -82l-4 -31q-2 4 -12 58q-31 51 -152 51q-49 0 -129 -9.5t-94 -9.5l223 259q129 178 129 331l-43 95q-35 61 -80 71v12q-129 49 -248 54q-98 -10 -178 -54q-92 -47 -92 -108q0 -39 39 -78q12 -8 31 -8q20 0 103 25.5t138 25.5q82 0 152 -47q6 -10 6 -27 q0 -84 -174 -297q-154 -186 -182 -200q-59 -100 -60 -162q0 -94 156 -94q63 0 205.5 20.5t193.5 20.5q4 2 10.5 7t8.5 9q6 18 8 29q18 6 25.5 14t19.5 43z" />
<glyph unicode="3" horiz-adv-x="782" d="M743 1067l-14 -4q-12 121 -117 209l-186 147q-68 18 -135 43l-182 -12q-102 -10 -152 -43q-61 -41 -61 -129q23 -16 96 -49q86 10 219 37q111 0 180 -37q41 -25 148 -119q8 -16 8 -33q0 -59 -117 -137q-72 -47 -231 -125q-137 -68 -156 -86q-8 -27 -8 -51q0 -92 143 -131 l232 -41q70 -51 69 -129q0 -109 -112 -221q-47 -29 -162 -37q-92 -6 -101 -35q4 -6 -2 -31q-14 -43 -14 -45q47 -74 135 -74q111 0 277 109q145 145 145 336q0 115 -61 203q-66 96 -191 137q0 16 72 62t121 65v10q37 10 87 80t70 131z" />
<glyph unicode="4" horiz-adv-x="802" d="M766 297v-12q-2 12 -18 49q-14 31 -15 55q-78 6 -141 21q0 16 8 118q8 113 8 183q0 293 -147 233q-20 -27 -31 -74q18 -266 -12 -438q-41 -12 -105 -8q-109 6 -88 6q-8 8 -8 53q0 59 62 527q-6 68 -11 82q-8 29 -47 69q-63 -6 -78 -16q-6 -6 -30 -55q-6 -90 -45 -390 q-31 -233 -31 -368q59 -104 213 -105q23 0 71 2t74 2q-16 -266 -24 -510q25 -61 61 -61q20 0 78 21q31 47 31 159q0 31 -3 95.5t-3 95.5q0 137 47 184q12 0 35.5 -2t35.5 -2q82 0 113 86z" />
<glyph unicode="5" horiz-adv-x="980" d="M934 541l-4 -13q-35 164 -105 252q-53 63 -198 162q-123 61 -387 62q-8 33 -21 98q135 39 520 39q55 41 63.5 56t8.5 85h-12v10h-8q-23 45 -168 45q-160 0 -494 -61q-92 -47 -92 -160q0 -63 31 -153l49 -132q41 -27 184 -34l215 -13q229 -115 229 -280q0 -137 -188 -389 q-53 -27 -113 -27q-123 0 -247 105v8q-29 14 -29 80v38q2 27 2 39q0 59 -33 60q-6 18 -6 20q-12 2 -25 2q-84 0 -83 -137q0 -92 24 -162q66 -96 176.5 -157.5t231.5 -61.5q96 0 182 43v19q117 96 197 249q77 148 100 308z" />
<glyph unicode="6" horiz-adv-x="765" d="M731 358v-4q-10 86 -16 109q-20 55 -76 82q-59 61 -227 78q-61 6 -234 6q-10 20 -10 65q0 174 213 899q-6 43 -6 95q-45 29 -74 28q-27 0 -55 -22l-142 -525q-76 -295 -96 -501q0 -313 84 -512q119 -186 275 -187q186 0 325 250q0 12 13 66q14 61 26 73zM573 352 q-51 -117 -96 -157q-53 -49 -145 -50q-74 18 -113 115q-20 51 -41 174q113 43 156 43q41 0 100 -12q63 -31 131 -59q4 -19 8 -54z" />
<glyph unicode="7" horiz-adv-x="884" d="M791 391h-5q-23 209 -14 449q2 31 10.5 96t8.5 98q0 106 -78 160l-690 -8q-53 -37 -54 -82q0 -51 64 -94q74 -12 180 -13q66 0 202 6.5t203 6.5q0 -57 -6 -193q-6 -127 -6 -196q0 -174 33 -277l80 -22q45 -1 72 69z" />
<glyph unicode="8" horiz-adv-x="1058" d="M991 29l-2 -6q-6 123 -14 153q-18 84 -78 143v13q-39 16 -109 88l-100 102q6 12 74 58q76 51 104 79q66 119 66 189q0 63 -55 125l-142 135h-39v12h-8l-6 -12q-6 6 -6 8q-37 2 -72 2q-143 0 -272 -49q-29 -16 -86 -53v-12q-72 -35 -96 -117q-14 -39 -19 -135 q12 -74 39 -113q12 -18 76 -82v-14q-295 -244 -295 -520q0 -141 88 -265q172 -172 414 -172q190 0 335 111q156 121 203 332zM831 51l-2 -6q-92 -274 -348 -274q-141 0 -309 86q-74 74 -74 174q0 127 113 258q104 123 242 170q82 0 211 -113t161 -199q0 -49 6 -96zM770 819 q-152 -152 -321 -151q-100 0 -156 73q-18 72 -19 74q0 31 72 82v8q2 0 119 43q80 31 156 31q0 -49 71.5 -86t77.5 -74z" />
<glyph unicode="9" horiz-adv-x="755" d="M715 680l-2 -10q0 268 -54 397q-80 109 -172 109q-53 0 -129 -37l-137 -78v-8q-74 -37 -121 -133q-45 -88 -45 -185q0 -152 103 -184v-10q92 -23 364 -23q8 -49 -53 -299q-70 -272 -70 -389q0 -184 138 -184l41 59q0 188 51 475q86 494 86 500zM549 698 q-125 -31 -215 -30q-90 0 -133 30q0 98 94 200.5t211 102.5q35 -68 41 -159q0 -72 2 -144z" />
<glyph unicode=":" horiz-adv-x="229" d="M217 578l-18 86q-27 39 -62 38q-31 0 -58.5 -25.5t-33.5 -47.5q31 -100 68 -101q22 1 104 50zM207 250h-2q-6 23 -10 45q-8 31 -37 51q-115 0 -115 -80q0 -35 23.5 -62.5t54.5 -27.5q49 0 86 74z" />
<glyph unicode=";" horiz-adv-x="231" d="M219 10l-6 -30q-2 68 -25 223q-49 49 -84 49q-57 0 -71 -133q-4 -31 -4 -158q-66 -219 -80 -217q2 -84 67 -84q55 0 97 59q2 0 5 2.5t3 4.5q8 16 33 57q35 96 36 104q19 60 29 123zM209 543q-4 23 -14 67q-16 10 -50 29q-23 6 -45 0q-29 -6 -30 -6q-4 -23 -21 -23 q-10 -29 -10 -53q0 -43 25.5 -69.5t60.5 -26.5q70 0 84 82z" />
<glyph unicode="&#x3c;" horiz-adv-x="905" d="M707 1196q-12 49 -32 67.5t-67 18.5q-47 -31 -155 -123q-121 -98 -121 -112q-86 -90 -219 -203q-23 -35 -23 -72q0 -66 84 -160q115 -129 125 -145h10q0 -12 111 -129q96 -104 133 -139q10 0 30.5 -3t30.5 -6q82 16 82 64q0 53 -113.5 168t-113.5 131q-33 8 -107 111 q-72 96 -71 114q43 47 149 137q16 35 133 123q111 84 134 158z" />
<glyph unicode="=" horiz-adv-x="1069" d="M1020 756q-14 27 -33 73q-51 10 -121 11q-170 0 -399 -56q-207 -47 -334 -106q-18 -37 -18 -57q0 -16 18 -36l37 -40l797 127q6 6 18 19l21 22q-6 31 -7 28q3 1 21 15zM758 375q-20 66 -115 65q-39 0 -96 -12q-39 -6 -78 -14q-141 -18 -188 -31q-119 -33 -119 -94 q0 -16 10 -37q41 -33 152 -33q100 0 223 27q117 25 188 59q-14 31 23 70z" />
<glyph unicode="&#x3e;" horiz-adv-x="919" d="M877 664q-6 84 -37 145q-168 109 -496 301v10q-23 0 -104 54q-92 59 -105 63q-76 -45 -76 -80q0 -16 13 -53q78 -70 227 -166l244 -160q143 -27 143 -127q0 -45 -31 -116l-51 -119l-80 -142q-53 -98 -53 -155q0 -59 57 -82v-14q25 12 68 26v-12q23 10 72 117h8 q20 57 100 241q70 163 101 269z" />
<glyph unicode="?" horiz-adv-x="1155" d="M1102 178q-10 92 -74 92q-31 0 -52.5 -26.5t-21.5 -71.5q39 -55 82 -55q29 0 37 43q2 0 27 6q0 6 2 12zM975 954q-2 51 -8 156l-41 80q-35 66 -35 76h-10q-14 18 -47 41l-46 32q-92 37 -204 37q-178 0 -342 -82t-228 -209q0 -86 74 -86q27 0 62 13q63 63 184 114 q133 55 248 56q109 0 176 -54q35 -57 35 -127q0 -125 -152 -346q0 -53 77 -127.5t136 -74.5q39 0 55 34q4 2 13.5 5.5t13.5 5.5q2 25 2 41q0 35 -23 53q-47 39 -65 63q-4 25 125 299z" />
<glyph unicode="@" horiz-adv-x="1619" d="M1544 1051l-6 110q-33 164 -184 348q-111 96 -277 127q-162 12 -321 -59q-18 -8 -273 -154q-145 -123 -231 -307q-23 -45 -127 -338q0 -344 55 -504q92 -270 363 -270q59 0 59 23q49 16 101.5 78.5t52.5 132.5q-51 51 -90 51q-31 0 -76 -46t-78 -46q-150 53 -201 141 q-39 72 -39 221v96q2 70 2 111l119 332q94 152 256 258q180 121 352 121q131 0 240 -74q66 -102 102 -150q31 -61 31 -135q0 -123 -90 -287l-147 -235h-9q-49 -63 -69 -64q-12 0 -12 31q0 45 55 260q53 201 45 240q-47 39 -80 39q-31 0 -61 -31q-10 0 -17 4q-68 84 -172 84 q-135 0 -242 -108q-43 -57 -91 -186.5t-48 -196.5q0 -14 2 -25q78 -78 119 -104q61 -43 127 -43q74 0 170 53q0 -98 45 -141q27 -27 137 -72q127 0 281 211q131 180 178 350zM950 932q-27 -55 -111.5 -147.5t-90.5 -110.5q-94 0 -128 12t-34 47q0 -8 30 146q23 55 83.5 100 t119.5 45q86 0 131 -92z" />
<glyph unicode="A" horiz-adv-x="1376" d="M1309 -23l-4 -32l-510 1276q-39 47 -181 47q-53 -86 -104 -203l-80 -184q-66 -147 -268 -537q-20 2 -38 2q-56 0 -94 -19q-50 -26 -50 -65q0 -59 98 -92q-12 -35 -31 -82q-12 -31 -12 -41q0 -16 55 -72h16q6 6 11 13q-4 -8 -4 -21q49 2 86 60l61 123q492 0 799 -54 q16 -49 49 -112q53 -100 90 -101q16 0 29 19q18 0 26 2v26q16 4 27 13q13 26 29 34zM967 287l-617 39q0 53 119 249l209 443q27 -27 51 -90q33 -84 39 -94q12 -102 92 -279q91 -198 107 -268z" />
<glyph unicode="B" horiz-adv-x="1398" d="M1333 360q-4 199 -49 316q-76 135 -262 242q-98 55 -326 145l13 41q31 10 51 60t20 106q0 61 -24 96q-221 166 -406 166q-117 0 -180 -84q9 -304 9 -418q0 -23 -1 -39q0 -53 -22 -315q-20 -252 -21 -371q0 -133 21 -176q111 -78 458 -78q293 0 404 53q137 39 182 70 q74 53 133 186zM1155 406q0 -86 -149 -132q-106 -31 -297 -43l-220 -8l-155 45q29 690 28 819q0 127 -4 240q0 6 7 16q49 0 127 -26q92 -31 110 -70q-49 -72 -51 -76q-29 -41 -47 -51q-113 -59 -113 -112q0 -66 180 -115q217 -59 326 -115q182 -92 240 -233z" />
<glyph unicode="C" horiz-adv-x="972" d="M928 1305v-13q-25 100 -109 101q-88 0 -231 -111q-100 -78 -160 -147q-127 -152 -201.5 -277t-146.5 -309q-6 -39 -6 -78q0 -229 157 -397q160 -174 386 -174h6l20 30q12 10 31 13q-2 45 -8 133q-139 12 -213 57q-61 37 -111 119l-100 184q-6 20 -6 45q0 123 139 320 q119 172 221 246l172 108q107 70 160 150z" />
<glyph unicode="D" horiz-adv-x="1550" d="M1477 813v-16q-14 240 -103 346q-96 117 -330 145q-254 0 -536 -63q-391 -90 -391 -246q23 -115 125 -520l84 -361q-43 -23 -43 -57q0 4 18 -64q2 0 5 2.5t5 4.5v-7q29 -12 66 -12q68 0 205 62q158 70 217 82v8q20 6 92 53t115 57v9q18 4 77 43q86 57 103 67q0 2 104 133 q111 141 135 195zM1307 827q-63 -244 -334 -434q-221 -158 -488 -223q-55 125 -102 358l-76 392q0 55 248 118q170 43 315 64q233 0 301 -31q118 -51 136 -244z" />
<glyph unicode="E" horiz-adv-x="1124" d="M1071 1274q-4 10 -13 28l-14 25q-37 27 -104 27q-45 0 -111 -13l-88 -16q-74 -49 -252 -53q-211 -6 -262 -21q-121 -37 -121 -168q57 -219 95 -508l51 -503q29 -35 54.5 -47.5t53.5 -24.5q61 18 254 37q174 16 279 57q12 29 41 82q-23 41 -31 53q-18 27 -43 39 q-145 -27 -434 -59q-16 27 -16 76q88 0 165 18q133 31 134 103q0 27 -19 59q-51 31 -117 31q-33 0 -92 -10.5t-86 -10.5q-12 111 -39 328q-2 18 -26 119q-20 80 -21 135q115 20 363 47q47 18 166.5 37.5t191.5 48.5q12 37 27 37q-4 29 14 47z" />
<glyph unicode="F" horiz-adv-x="1323" d="M1262 1260v-3h-13q-2 12 -2 41q-23 25 -73 58q-63 -33 -220 -67t-206 -62q-356 -115 -537 -158q-111 0 -111 -125q0 -82 52 -282l116 -437q47 -184 60 -209q41 -70 164 -77q0 18 2 30q10 -2 28 2q10 23 10 45q0 29 -26 101q-22 52 -22 87q0 8 1 15l265 129q10 14 23 30.5 t28 16.5v76h-13q-14 49 -63 49q-45 0 -149.5 -54t-131.5 -54q-20 0 -26 14l-64 242q-41 158 -41 245q279 90 861 256q35 20 47 37q25 36 41 54z" />
<glyph unicode="G" horiz-adv-x="1036" d="M987 1139v-2q-23 145 -55 215q-55 121 -168 147q-23 2 -45 2q-261 0 -438 -270h-9q-176 -354 -192 -752q29 -461 383 -461q86 0 188 27q78 45 157 154.5t110 218.5q-29 59 -112 97t-171 38q-100 0 -139 -49q43 -88 57 -96q6 -2 147 -29q2 -2 2 -8q0 -20 -44 -69.5 t-50 -49.5v-12q-57 -35 -116 -45q-2 0 -107 -9q-158 80 -158 312q0 160 99 485q55 111 137 207q123 147 223 147q61 0 113 -57q18 -63 39 -127q27 -78 65 -78q35 1 84 64z" />
<glyph unicode="H" horiz-adv-x="1157" d="M1104 864v-22q-4 86 -10 123q-8 70 -35 129q-12 0 -45 18q-61 0 -80 -55l-12 -86l-13 -555q-14 0 -325 -19q-193 -12 -314 -12q14 143 39 434l17 268q0 188 -58 275q-20 4 -61 8l-4 -12q-41 -27 -51.5 -66t-18.5 -73q-6 -315 -45 -764q-20 -231 -20 -287q0 -72 12 -94 q10 -6 24 -6v-19q14 2 60 -18q6 14 29.5 24.5t35.5 30.5q18 33 27 107q33 2 238 22q174 16 274 16q84 0 139 -10l8 -162q4 -72 39 -129q25 -4 72 -10v14q20 14 64 48q2 20 8 38q-6 180 -6 356q0 249 12 488z" />
<glyph unicode="I" horiz-adv-x="413" d="M395 195q-18 547 -67 948q-31 41 -113 47q-49 -70 -49 -137v2q1 0 6 -97q6 -150 51 -753q49 -63 72 -64q10 0 37.5 12.5t54.5 18.5q6 9 8 23z" />
<glyph unicode="J" horiz-adv-x="790" d="M754 694v-28l-5 10q-3 6 -6 8q0 205 -22 377q-41 326 -146 325q-72 -39 -71 -108v-31q2 -18 2 -28q57 -231 57 -521q0 -133 -20 -454q-33 -125 -57.5 -168t-75.5 -72l-154 -74q-109 -16 -109 -43q0 -8 9.5 -29.5t9.5 -35.5q49 -20 72 -27q14 -2 28 -2q45 0 105 35 q88 51 123 66v14q158 47 213 328q23 111 36 438z" />
<glyph unicode="K" horiz-adv-x="1431" d="M1364 299q-8 45 -23 63q-10 12 -51 48q-115 16 -788 151v19q342 283 342 309q6 0 10 4l170 158q80 55 242 192q6 23 20 68q-25 -6 -26 -6q0 29 -46 81q-139 0 -669 -530l-262 -219q-29 94 -68 356q-51 72 -90 72q-35 0 -57 -59q-16 -49 -17 -113q12 -106 58 -363 q41 -229 49 -362q16 -35 35 -70q14 -20 69 -28v10q25 0 45 6q0 20 27 39q0 8 -12 272q33 0 118.5 -22.5t134.5 -24.5l353 -82q217 -49 362 -49q12 4 35 14v17q14 8 23.5 25.5t15.5 23.5z" />
<glyph unicode="L" horiz-adv-x="946" d="M901 41v-10q-4 8 -20 45q-59 29 -156 28h-68q-45 -2 -65 -2q-76 0 -119 21q-59 240 -104 625l-72 641q-41 76 -102 75q-72 0 -72 -98l190 -1337q23 -57 54 -70q2 0 112 -18q18 0 86 -7q59 -4 97 -4q184 0 239 111z" />
<glyph unicode="M" horiz-adv-x="1560" d="M1487 508q-68 459 -197 735q-27 37 -63 37q-74 0 -195 -160l-131 -178q-27 53 -67 170q-55 164 -62 178q-59 96 -117 96q-86 0 -163 -208q-4 -12 -80 -271l-312 -727q8 -68 24.5 -81t94.5 -13q109 98 207 387q113 334 180 434q12 57 15 70q14 45 38 82q31 -31 84 -219 q45 -156 113 -156q55 0 139 84q74 86 170 219h21l74 -203l24 -231q16 -96 109 -96q27 0 61 6v24h19q0 3 14 21z" />
<glyph unicode="N" horiz-adv-x="1345" d="M1282 909v17q-31 -6 -25 -6q-12 10 -34 45q-27 0 -39 14q-16 -2 -39 -2q-6 -16 -21 -16q-49 -98 -96 -283q-55 -223 -78 -283q-10 0 -14 4q-215 350 -526 705q-59 29 -111 29q-100 0 -119 -97q-47 -590 -125 -1124q0 -31 13.5 -56.5t13.5 -29.5q14 2 41 8q4 -10 12 -27 q20 4 33 11q6 6 13 12t7 16q18 4 27 11q31 66 45 186q10 82 98 868q4 4 64.5 -69.5t64.5 -83.5q113 -125 226 -301l190 -324q8 -4 31 -22q14 -10 35 -11q16 0 45 6q14 14 30 27q20 23 29 74z" />
<glyph unicode="O" horiz-adv-x="1005" d="M958 668l-12 92q-8 51 -45 127q-45 92 -88 108q-47 6 -94 6q-219 0 -402 -98q-199 -104 -264 -276q-2 -20 -1 -39q0 -116 65 -185q63 -72 209 -108q84 -8 141 -8q233 0 334 116q87 103 157 265zM784 682q-82 -143 -120 -166q-27 -18 -185 -39q-242 0 -241 88 q0 61 105.5 137t231.5 115q100 0 154 2z" />
<glyph unicode="P" horiz-adv-x="1155" d="M1030 453v-41q23 96 23 166q0 106 -62 180l-125 143q-104 80 -276 135q-80 25 -293 74q-109 0 -137 -49q-14 -23 -21 -123q41 -221 45 -565q8 -455 15 -541q23 -31 65 -43q16 23 33 25l12 -13q2 4 5 12.5t5 12.5q6 -4 21 -12q12 29 20 43l5 125q4 102 24 112 q252 29 371 84q172 80 270 275zM852 444q-119 -225 -403 -225q-37 0 -74 4q-2 78 -21 322q-14 213 -14 342q6 6 27 6q106 0 321 -90q88 -57 125 -103q57 -66 57 -151q0 -50 -18 -105z" />
<glyph unicode="Q" horiz-adv-x="1548" d="M1473 938h-3q-63 182 -135 262q-86 98 -264 152q-43 33 -144.5 47t-115.5 28q-76 12 -149 13q-207 0 -374 -99.5t-247 -277.5q-25 -117 -25 -211q0 -250 195 -373q127 -80 494 -166q4 -82 8 -243q23 -31 52.5 -45.5t39.5 -24.5q33 0 84 35q0 266 16 284q350 150 432 314 h13l14 29h10l62 114q37 78 37 162zM1296 905q-14 -113 -161 -248q-137 -125 -240 -143q-18 37 -25.5 90t-17.5 68q-16 25 -70 24q-20 0 -45 -2q-29 -47 -35 -94v-82q-143 0 -268 47q-141 53 -209 150q-18 82 -18 149q0 362 504 402l73 -33q180 0 320 -78q161 -90 192 -250z " />
<glyph unicode="R" horiz-adv-x="1433" d="M1296 1014q23 78 23 137q0 111 -82 185.5t-268 136.5q-297 0 -559 -64q-393 -94 -394 -291q90 -332 252 -1003q25 -55 49 -66q41 -20 48 -26q84 0 84 102q0 -10 -17 145q195 -45 420 -92q74 -41 82 -41q6 0 24 13q27 16 64 28q-4 2 -4 10q12 12 22 19q-16 94 -88 133 q-37 20 -143 39q-90 16 -123 49l354 231q158 122 256 355zM1122 1085q-51 -172 -314 -384t-423 -212q-57 242 -156 543q-2 6 -12 39q-8 27 -8 45q0 14 4 29q96 43 262 84q215 53 369 53q217 0 270 -108q2 -14 5 -44.5t3 -44.5z" />
<glyph unicode="S" horiz-adv-x="878" d="M836 1190l-17 -31q-12 45 -14 74q-37 18 -76 18q-121 0 -262 -168q-94 -113 -162 -245q-12 -45 -12 -99q0 -86 35 -184q8 -63 8 -141q0 -193 -45 -342q-55 -182 -160 -224q-82 -12 -100 -18q-47 -14 -60 -43q0 2 -2 2v4q4 -29 8 -47q16 -18 76 -51q252 2 375 225 q98 180 98 469q0 125 -18 244q-18 57 -19 108q0 121 117 240z" />
<glyph unicode="T" horiz-adv-x="1519" d="M1446 1333l-2 -2q-35 72 -107 72q-23 0 -71.5 -10.5t-71.5 -10.5q-334 -88 -1059 -208q-82 -31 -102 -44q-35 -20 -35 -49t31 -80q16 -16 71 -16q84 0 321.5 47t283.5 47q45 -186 73 -463q23 -223 43 -448q16 -141 72 -141q25 0 59 22q12 -4 39 -4q10 29 10 74 q0 8 -26 233q-14 154 -49 461l-49 307q211 45 485 111l55 40q29 21 29 62z" />
<glyph unicode="U" horiz-adv-x="1054" d="M1004 946h-3q-16 86 -45 129q-8 -2 -26 -10q-31 14 -53 14q-72 0 -72 -143q0 -70 14 -143q-35 -215 -53 -271q-41 -129 -135 -194q-72 -29 -129 -29q-113 0 -242 147q-51 92 -61 236q-1 24 -2 61q0 74 6 201q2 56 2 103q0 94 -8 153q-51 51 -88 51q-55 0 -78 -110 q0 -25 -8 -172q-6 -113 -7 -185q0 -397 193 -542v-11q156 -121 301 -120q162 0 313 151h11l28 51h10l21 29q91 182 111 604z" />
<glyph unicode="V" horiz-adv-x="1071" d="M1022 1159q-25 121 -94 121q-41 0 -82 -49q-172 -528 -246 -813q-14 0 -190 377q-190 408 -207 436q-33 33 -78 33q-82 0 -82 -68q61 -205 221 -526q207 -422 244 -508q68 -78 98 -78q41 0 94 78q59 115 123 342l99 373q32 110 100 282z" />
<glyph unicode="W" horiz-adv-x="1394" d="M1327 1200q0 43 -12 55q-6 -2 -21 -8q-6 6 -6 15l-28 8q-4 2 -13 18h-43v10q-94 -33 -94 -471q-41 20 -176 183q-115 139 -201 139q-23 0 -45 -8q-68 -129 -172 -301l-172 -281h-8q-14 145 -31 289q-20 176 -47 309q-55 78 -98 78q-72 0 -72 -170q68 -522 90 -862h8 q6 -14 23 -45h39q4 -14 10 -21q29 4 53 13q0 4 4 12q4 0 15 2q61 90 200 368q125 250 228 381q31 -14 129 -127h8v-10h12q0 -33 97.5 -115.5t97.5 -101.5q49 -49 92 -49q23 0 59 8v14q-4 0 27 7q2 14 12 26q10 90 15.5 306t19.5 329z" />
<glyph unicode="X" horiz-adv-x="1206" d="M1147 477l-2 -20q-12 39 -27 71q-55 27 -151 84q-113 66 -115 80q129 274 149 328q84 213 84 360q-41 41 -77 41q-66 0 -121 -139l-66 -182q-25 -80 -78 -199t-71 -131q-119 47 -275 162q-190 141 -252 176q-96 -20 -96 -94q0 -53 45 -108.5t90 -63.5v-13 q170 -123 402 -241v-15q-2 -8 -125 -301q-72 -174 -72 -288q2 -2 12 -2q0 -18 2 -27q31 -6 74 -43q49 20 76 35q16 84 86 293q90 270 139 270q6 0 13.5 -4l126.5 -68q86 -45 137 -45q0 -6 6 13h43q0 6 4 18q18 0 25.5 17.5t13.5 35.5z" />
<glyph unicode="Y" horiz-adv-x="1437" d="M-37 1104l-4 -2q115 -90 283 -275q201 -223 256 -274l-52 -236q-27 -132 -26 -213v-12q25 -63 74 -63q6 0 14 2h12q14 0 23 -8q27 10 59 167q41 182 47 197q10 156 58 234q6 12 151 194l174 221q164 217 164 312q0 59 -59 71q-14 -8 -101 -43q-113 -188 -477 -631h-2 q-20 0 -99 78q-85 84 -118 133l-119 127q-131 125 -196 125q-60 0 -62 -104z" />
<glyph unicode="Z" horiz-adv-x="1441" d="M1372 166l-2 -2q-10 74 -94 104q-135 0 -392 -44t-364 -44q-8 18 142 217q211 285 284 398q158 238 158 338q-18 74 -238 73q-47 0 -334 -26q-8 0 -58 2t-87 2q-267 0 -267 -82q0 -35 50 -86q104 -29 250 -29q74 0 226.5 10.5t225.5 10.5q-57 -100 -149 -232 q-133 -188 -145 -209h-9l-274 -387h-8q-25 -43 -25 -76q0 -102 240 -102q154 0 403 43l254 47q61 0 123 2q41 6 90 72z" />
<glyph unicode="\" horiz-adv-x="706" d="M674 70v-7q-37 162 -146 412q-154 344 -177 415l-46 142q-41 113 -78 125q-78 0 -96 -41q-4 -12 -4 -90q133 -381 154 -434q96 -244 200 -404l25 -133q10 -20 92 -65q2 2 14 16q2 -10 9 -16q27 14 32 18q15 17 21 62z" />
<glyph unicode="_" horiz-adv-x="1286" d="M1227 -346v-43q-27 43 -43 82q-70 10 -160 10q-219 0 -518 -53q-264 -45 -430 -103q-25 -37 -25 -57q0 -16 23 -35l47 -37l1036 136q16 14 49 47q-6 14 -6 32q2 2 11.5 9.5t15.5 11.5z" />
<glyph unicode="`" horiz-adv-x="1228" />
<glyph unicode="a" horiz-adv-x="854" d="M801 219h-2q0 16 2 29h-13l-36 387q-35 221 -193 338q-41 10 -86 10q-127 0 -258 -65.5t-188 -147.5q-8 -31 -9 -51q0 -55 54 -55q84 0 307 143q27 6 49 6q166 0 166 -383h-44q-148 0 -202 -12q-111 -27 -155 -129q-12 -41 -13 -76q0 -98 90 -143q64 -32 160 -33 q20 0 41 2q131 25 184 53q44 25 146 127zM592 246q-111 -35 -158 -35q-31 0 -63 8v41q45 10 114 10q82 1 107 -24z" />
<glyph unicode="b" horiz-adv-x="794" d="M758 254v-14q-12 162 -92 261t-211 99q-63 0 -133 -25q-25 252 -66 728q-8 53 -18 104q-12 63 -35 104q-29 8 -51 9q-39 0 -56 -33q-4 -10 -14 -68q55 -371 94 -1218l17 -193q18 -121 88 -121q33 0 75 25q6 31 17 74q12 -6 43 -6q109 0 151 38q86 14 121 87zM600 227 q-33 -47 -123 -92q-80 -41 -119 -41q-8 0 -10 2q-2 14 -16 97q-12 70 -13 112q0 141 130 141h4q86 -33 116 -86q25 -41 31 -133z" />
<glyph unicode="c" horiz-adv-x="477" d="M453 860h-2l-23 45h-5q-139 0 -271 -108q-127 -106 -156 -228q-2 -27 -2 -53q0 -281 280 -352q4 0 31 14.5t41 14.5q14 59 14 69q0 29 -12 55q-197 61 -196 195q0 94 108 188l107 56q61 41 86 104z" />
<glyph unicode="d" horiz-adv-x="882" d="M840 25l-4 -9q-20 197 -35 535q-16 395 -27 534q-37 102 -45 402q-27 35 -65 35q-55 0 -89 -45q-8 -74 -8 -156q0 -104 19.5 -301t19.5 -289q-4 -3 -17 -3q-26 0 -89 13q-184 -33 -336 -108q-205 -100 -205 -225q0 -16 2 -31q70 -147 166 -209q80 -53 213 -64 q12 0 289 -4q4 -12 9 -38.5t7 -41.5q45 -70 98 -69q23 0 41 18q2 -2 7 -2q6 0 21.5 23t27.5 35zM610 301q-20 -20 -82 -27q-27 -3 -65 -2h-41q-73 3 -73 4h3q-100 20 -125 33q-43 23 -77 90q14 43 157.5 107.5t239.5 64.5q37 0 57 -10z" />
<glyph unicode="e" horiz-adv-x="593" d="M565 614h-4q-8 55 -10 93q-72 178 -215 178q-111 0 -219 -101q-102 -119 -103 -282q0 -115 56 -199q61 -92 170 -119q74 -2 55 -2q98 0 100 92q-18 53 -71 68q-27 8 -101 8l-18 27q-10 14 -10 37q15 1 31 0q33 0 71 -2q70 -4 82 -4q70 0 106 36q45 45 80 170zM408 655 l-25 -73q-25 -10 -70 -11q-41 0 -157 19q2 39 62.5 91t113.5 52q62 0 76 -78z" />
<glyph unicode="f" horiz-adv-x="1226" d="M1169 1223v-6q-27 135 -168 210q-121 68 -282 68q-129 0 -219 -43q-162 -119 -262 -410q-27 -98 -84 -290q-92 -451 -115 -729q12 -20 41 -54q43 -20 72 -20q68 0 77 143q12 166 37 191q141 -16 447 -37q14 14 45 41q-14 55 -23 104l-203 43q-178 14 -200 19 q-53 12 -53 49q0 25 26 110q37 119 57 207l76 228q51 141 115 213q82 94 197 94q74 0 163 -39q16 -12 88 -80q45 -43 82 -43t86 31z" />
<glyph unicode="g" horiz-adv-x="843" d="M803 483l-4 -24q-37 205 -277 227q-6 168 -12 223q-23 178 -84 181q-2 6 -2 20q-35 -6 -70 -14q-18 -6 -35 -37v-18q0 -62 12 -165q13 -120 13 -169l-238 -121q-57 -70 -57 -140q0 -74 60.5 -132t154.5 -85q25 -55 25 -366q0 -293 -19 -328q-256 -84 -256 -326 q0 -70 25 -143q74 -98 158 -98q59 0 151 45q221 160 221 332q0 106 -92 200l-26 695q166 25 211 49q82 44 141 194zM614 469q-29 -57 -168 -57q-109 0 -192 22q0 39 102 68q74 20 132 19q14 0 28 -1q14 -14 43 -26q49 -21 55 -25zM399 -713v-24q-113 -123 -192 -140 q-12 37 -12 74q0 133 131 158q4 -4 71 -14q0 -46 2 -54z" />
<glyph unicode="h" horiz-adv-x="811" d="M772 528l-2 -14q-51 287 -182 377h-11q-204 0 -327 -78q-25 219 -25 543q-8 176 -14 352q-16 254 -90 301q-90 -20 -90 -113q0 -29 11 -88t11 -84q23 -883 74 -1787l49 -27q33 4 51 8q43 57 43 170q0 53 -5 157.5t-5 157.5q0 164 49 240q64 102 229 103q3 0 7 -1 q33 -61 59 -104q4 -35 4 -74q0 -66 -19.5 -189.5t-19.5 -178.5t15 -99h10v-10q41 -12 65 -16q57 43 84 202z" />
<glyph unicode="i" horiz-adv-x="374" d="M358 1149q-2 20 -8 65q-12 0 -14 5q-23 49 -33 59q-15 13 -48 13q-8 0 -17 -1q-55 -53 -56 -112q0 -41 25.5 -69t60.5 -28q55 0 90 68zM338 117v-2q-27 289 -27 456q-35 70 -86 70q-41 0 -84 -41q6 -254 19 -504q29 -86 61 -86q-4 0 92 17q9 41 25 90z" />
<glyph unicode="j" horiz-adv-x="546" d="M375 1141l-19 73q-45 20 -82 21q-47 0 -72.5 -26.5t-25.5 -61.5q0 -82 94 -82q35 0 80 16q2 15 25 60zM522 74v-25q-29 825 -190 825q-23 0 -45 -12q-31 -53 -31 -119q78 -420 78 -653q0 -240 -66 -430q-20 -35 -63 -96q-92 -45 -92 -154q0 -90 77 -90q33 0 78 23 q100 131 172 260q35 80 54 223z" />
<glyph unicode="k" horiz-adv-x="845" d="M807 729q-6 63 -24.5 81.5t-84.5 20.5l-469 -311q-20 43 -20 142q0 90 25.5 333.5t25.5 347.5q0 78 -10 130q-31 33 -62 32q-53 0 -75 -67q-31 -256 -54 -926q-33 -201 -36 -461q20 -14 51 -51q-6 0 67 6q12 29 37 146q20 98 60 151q10 6 28 6q41 0 191.5 -54t216.5 -54 q113 0 114 123q-39 55 -352 127l10 30h2q32 0 142 80q147 104 182 123q2 8 18.5 22.5t16.5 22.5z" />
<glyph unicode="l" horiz-adv-x="524" d="M500 16v-10q-14 84 -68 103q-18 6 -125 8q-10 12 -10 73q0 82 20 291q27 240 29 275q18 317 19 385q0 223 -41 289q-37 23 -66 22q-92 0 -92 -224v-20v-23q0 -178 -29 -491q-33 -344 -33 -493q0 -121 15 -224q63 -43 182 -43q100 0 168 35q11 14 31 47z" />
<glyph unicode="m" horiz-adv-x="1480" d="M1411 616q-45 391 -168 451h-7q-78 0 -153 -43q-47 -27 -108 -86q-51 -45 -64 -45q-47 109 -82 127v12q-41 6 -79 6q-270 0 -494 -299h-14q-10 45 -56 90q-49 0 -92 -16q-49 -145 -49 -446q0 -164 23 -211q20 -4 61 -9v-14q6 -2 16 -8q74 16 88 121l9 207q72 125 188 237 q131 125 275 187q68 -47 67 -358q0 -56 -2 -120q55 -43 86 -43q18 0 37 9q57 18 57 180q0 29 -2 81t-2 70q88 154 205 181q41 -20 61 -117q16 -72 17 -142l-57 -151q-28 -76 -27 -141q4 -4 33 -29h94q76 53 139 319z" />
<glyph unicode="n" horiz-adv-x="976" d="M932 481v-2q-14 197 -33 299q-37 190 -108 281q-29 23 -68 22q-57 0 -143 -51l-109 -63v-11q-98 -63 -164 -157l-108 -172q-18 0 -54 45q-29 6 -51 6q-63 0 -71 -88q35 -100 79 -285q49 -209 70 -274q35 -27 57 -27q12 0 80 19q29 55 33 170v180q2 133 23 215 q45 86 122 176q111 129 191 129q72 -152 72 -397v-27q-29 -156 -29 -166q0 -43 20 -84q35 -27 62 -26q57 0 90 120z" />
<glyph unicode="o" horiz-adv-x="624" d="M596 391q-10 94 -88 155.5t-170 61.5q-119 0 -170 -100h-8q-47 -92 -54.5 -122t-9.5 -124q51 -94 66 -108q35 -31 123 -31q266 98 311 268zM438 393q-70 -66 -92 -80q-35 -23 -88 -30q-18 29 -18 67q0 49 29.5 89t70.5 40q57 0 98 -86z" />
<glyph unicode="p" horiz-adv-x="741" d="M707 479v-18q-29 94 -41 143q-4 8 -29 43q-18 23 -16 43h-13q-86 63 -205 64q-31 0 -92 -5.5t-90 -5.5q-6 86 -6 88q-10 51 -45 89q-37 18 -64 18q-66 0 -65 -132v-15q4 -150 68 -1123q4 -12 24.5 -29.5t40.5 -17.5q18 0 33 14q8 0 19.5 -2t17.5 -2q25 0 47 72 q-21 282 -21 412v22h8q161 0 261 86q88 76 168 256zM530 477q-90 -178 -274 -194q-6 68 -23 206q2 98 127 99q109 0 158 -78q4 -10 12 -33z" />
<glyph unicode="q" horiz-adv-x="1316" d="M1255 217v-18q-10 45 -43 61q-18 8 -75 14l-103 -102h-8q-20 -41 -142 -134q-119 -91 -140 -91q-2 0 -11 18q-31 383 -31 866v115q-12 125 -16 141q-23 70 -96 71q-6 0 -12 -1q-47 18 -95 19q-131 0 -268 -132q-102 -100 -184 -245q-12 -72 -13 -125q0 -90 35 -148 q72 -162 307 -161q82 0 183 20q8 -70 10 -251t12 -265q16 -133 66 -188q82 8 221 126l225 203q4 0 10 4q0 10 74 81t94 122zM545 565q-57 -55 -139 -55q-129 0 -228 102q-8 55 -8 95q0 82 45 141q33 41 150 139q47 25 172 25q8 -109 8 -447z" />
<glyph unicode="r" horiz-adv-x="964" d="M918 1061l-3 -6q-39 53 -102 53q-117 0 -305 -166q-51 -45 -195 -194q-47 -76 -125 -183v199q-8 2 -13 4t-13 27h-3q-134 0 -134 -197q0 -66 16 -170q18 -117 18 -131q4 -113 11 -336q33 -43 67 -43q39 0 64.5 45t27.5 111q-6 35 -6 69q0 92 51 211l101 217 q276 356 504 402v12q10 4 28 8q9 37 11 68z" />
<glyph unicode="s" horiz-adv-x="698" d="M666 991v-8q-6 14 -20.5 42t-22.5 40h-12q-88 0 -148 -29q-47 -20 -115 -84q-195 -180 -194 -311q0 -88 65 -203q70 -47 70 -225q0 -98 -23 -141q-23 -51 -82 -138q-41 -57 -41 -110q0 -18 4 -39q37 -27 76 -27q104 0 183 189q70 164 71 319q-12 104 -47 189 q-25 57 -92 176q0 61 127 182z" />
<glyph unicode="t" horiz-adv-x="806" d="M768 203h-2q-14 94 -68 94q-35 0 -98 -48t-72 -48q-104 45 -104 338q49 0 174 47l22 30q11 16 11 37q0 23 -13 58q-41 18 -88 18q-27 0 -67 -6q-47 -8 -62 -8q-31 166 -86 524q-23 0 -47 10.5t-30 10.5q-23 0 -48 -50v-13q0 -96 27 -271q29 -188 29 -269 q-47 -27 -137 -59q-76 -29 -113 -57q0 -57 6 -70l45 -47q37 0 109.5 25.5t119.5 25.5q27 -211 62 -291q66 -156 219 -157q68 18 113 65z" />
<glyph unicode="u" horiz-adv-x="1058" d="M1008 543h-2q-10 86 -84 221q-98 176 -117 225q-20 0 -50 5t-40 5q-27 0 -47 -20q-2 -215 -101 -344q-86 -117 -200 -117q-90 0 -151.5 79t-61.5 222q0 43 6 92q-6 59 -41 60q-53 0 -92 -64q-27 -84 -27 -166q0 -176 117 -290q111 -111 264 -111q264 0 401 295h13 q39 -80 47 -92q23 -33 69 -58q97 9 97 58z" />
<glyph unicode="v" horiz-adv-x="921" d="M877 784l-3 -8q-10 25 0 55q-23 0 -26 7l-8 28q-12 4 -35 11q-4 6 -4 20h-53q-49 -35 -117 -285q-45 -166 -74 -327q-8 0 -10 2l-180 299q-117 186 -205 278h-7q-127 0 -126 -78q0 -53 61 -149l86 -127q59 -61 189 -317q113 -225 188 -263q35 2 125 35q14 53 86 397 q54 254 113 422z" />
<glyph unicode="w" horiz-adv-x="1005" d="M956 956h-2q-25 68 -63 68h-4l-6 12q-23 -6 -66 -10l-59 -319q-35 -182 -70 -301h-18q-217 242 -217 268q-12 0 -15 4q-59 82 -114 82q-66 0 -125 -125h-15q-10 102 -26 280h-11q-4 6 -4 21q-47 10 -65 10q-39 0 -62 -37q-8 -66 -8 -143q0 -299 92 -498q15 -2 34 -2 q31 0 71 6l123 260q27 -6 120 -129q104 -137 144 -163v-9q23 -16 88 -110q18 -2 33 -2q88 0 114 98l33 219q2 16 55 252q35 155 43 268z" />
<glyph unicode="x" horiz-adv-x="1019" d="M971 387h-2q-4 23 -8 64q-31 61 -165 130.5t-157 114.5l55 178q43 135 43 216q0 49 -14 84q-33 25 -61 24q-82 0 -134 -192l-41 -213q-4 -4 -10 -5q-20 0 -159.5 98.5t-208.5 98.5q-29 0 -50 -14q-16 -25 -16 -53q0 -86 170 -199l223 -133q-6 -27 -80 -428q-2 -94 56 -95 q25 0 84 15q35 35 44 190.5t66 210.5q4 -4 17 -4v-8q-8 0 110.5 -64.5t167.5 -64.5q33 0 33 29q25 12 37 20z" />
<glyph unicode="y" horiz-adv-x="782" d="M743 840l-4 -13q-20 119 -80 119q-25 0 -61 -14q-55 -211 -106 -275q-72 -90 -239 -90h-7q-76 51 -76 164q0 27 5 81t5 81q-23 80 -74 80q-59 0 -96 -78q-14 -131 -14 -195q0 -123 47 -194q57 -82 197 -127q16 -53 16 -151q0 -60 -6 -138q-25 -289 -25 -321 q0 -113 31 -160q29 -14 41 -15l74 19q61 61 61 401q0 66 -12 379q166 106 211 166q51 68 112 281z" />
<glyph unicode="z" horiz-adv-x="700" d="M666 1010l-4 -15q-8 27 -21 80q-51 51 -285 51q-250 0 -352 -32q-25 -37 -24 -66q0 -96 272 -96q43 0 106 4q57 2 66 2l-92 -221q-16 -63 -58.5 -171t-52.5 -147l-74 -170q-53 -137 -53 -209q0 -82 66 -81q16 2 35 4q27 4 26 16l139 33q78 23 140 67q1 17 0 31 q0 26 -2 37q-8 27 -41 61q-39 -6 -119 -14q-2 5 -2 13q0 53 76 257q66 176 120 301q44 97 134 265z" />
<glyph unicode="{" horiz-adv-x="276" d="M0 0h264v1485h-264v-1485z" />
<glyph unicode="|" horiz-adv-x="1228" />
<glyph unicode="}" horiz-adv-x="1228" />
<glyph unicode="~" horiz-adv-x="1124" d="M1071 750q-4 14 -13 41l-14 38q-25 6 -65 19l-135 -111q-74 -53 -135 -53q-43 0 -93 25q-12 25 -18 95t-18 101q-23 53 -80 74q-106 -16 -299 -148q-201 -135 -201 -206q25 -78 80 -78q51 0 179 100.5t173 100.5q33 -231 248 -232q147 0 301 107q29 47 90 127z" />
<glyph unicode="&#xaa;" horiz-adv-x="854" d="M801 219h-2q0 16 2 29h-13l-36 387q-35 221 -193 338q-41 10 -86 10q-127 0 -258 -65.5t-188 -147.5q-8 -31 -9 -51q0 -55 54 -55q84 0 307 143q27 6 49 6q166 0 166 -383h-44q-148 0 -202 -12q-111 -27 -155 -129q-12 -41 -13 -76q0 -98 90 -143q64 -32 160 -33 q20 0 41 2q131 25 184 53q44 25 146 127zM592 246q-111 -35 -158 -35q-31 0 -63 8v41q45 10 114 10q82 1 107 -24z" />
<glyph unicode="&#xad;" d="M846 768h-2q-18 37 -51 45q-14 4 -66 4q-311 -35 -393 -49q-336 -59 -336 -145q0 -35 53 -72q121 10 352 47q248 39 365 51q14 6 45 21q6 6 10.5 43t22.5 55z" />
<glyph unicode="&#xb2;" horiz-adv-x="716" d="M682 -82l-4 -31q-2 4 -12 58q-31 51 -152 51q-49 0 -129 -9.5t-94 -9.5l223 259q129 178 129 331l-43 95q-35 61 -80 71v12q-129 49 -248 54q-98 -10 -178 -54q-92 -47 -92 -108q0 -39 39 -78q12 -8 31 -8q20 0 103 25.5t138 25.5q82 0 152 -47q6 -10 6 -27 q0 -84 -174 -297q-154 -186 -182 -200q-59 -100 -60 -162q0 -94 156 -94q63 0 205.5 20.5t193.5 20.5q4 2 10.5 7t8.5 9q6 18 8 29q18 6 25.5 14t19.5 43z" />
<glyph unicode="&#xb3;" horiz-adv-x="782" d="M743 1067l-14 -4q-12 121 -117 209l-186 147q-68 18 -135 43l-182 -12q-102 -10 -152 -43q-61 -41 -61 -129q23 -16 96 -49q86 10 219 37q111 0 180 -37q41 -25 148 -119q8 -16 8 -33q0 -59 -117 -137q-72 -47 -231 -125q-137 -68 -156 -86q-8 -27 -8 -51q0 -92 143 -131 l232 -41q70 -51 69 -129q0 -109 -112 -221q-47 -29 -162 -37q-92 -6 -101 -35q4 -6 -2 -31q-14 -43 -14 -45q47 -74 135 -74q111 0 277 109q145 145 145 336q0 115 -61 203q-66 96 -191 137q0 16 72 62t121 65v10q37 10 87 80t70 131z" />
<glyph unicode="&#xb9;" horiz-adv-x="528" d="M496 983l-2 -20l-19 155q-18 74 -84 74q-31 0 -72 -14l-245 -164q-31 -6 -27 -6v-13q-2 0 -8 -3l-10 -5q-10 -68 -11 -78q0 -66 97 -65l98 47q86 43 106 72q8 -8 9 -37q0 -2 -39 -496q-2 -33 -23 -186q-18 -125 -18 -193t14 -108q72 -18 70 -19q18 0 45 8q4 20 8 33 q4 -4 8 2q20 31 31 158q8 98 14 199z" />
<glyph unicode="&#xba;" horiz-adv-x="624" d="M596 391q-10 94 -88 155.5t-170 61.5q-119 0 -170 -100h-8q-47 -92 -54.5 -122t-9.5 -124q51 -94 66 -108q35 -31 123 -31q266 98 311 268zM438 393q-70 -66 -92 -80q-35 -23 -88 -30q-18 29 -18 67q0 49 29.5 89t70.5 40q57 0 98 -86z" />
<glyph unicode="&#xc0;" horiz-adv-x="1376" d="M1309 -23l-4 -32l-510 1276q-39 47 -181 47q-53 -86 -104 -203l-80 -184q-66 -147 -268 -537q-20 2 -38 2q-56 0 -94 -19q-50 -26 -50 -65q0 -59 98 -92q-12 -35 -31 -82q-12 -31 -12 -41q0 -16 55 -72h16q6 6 11 13q-4 -8 -4 -21q49 2 86 60l61 123q492 0 799 -54 q16 -49 49 -112q53 -100 90 -101q16 0 29 19q18 0 26 2v26q16 4 27 13q13 26 29 34zM967 287l-617 39q0 53 119 249l209 443q27 -27 51 -90q33 -84 39 -94q12 -102 92 -279q91 -198 107 -268z" />
<glyph unicode="&#xc3;" horiz-adv-x="1376" d="M1130 1624q-4 14 -13 41l-14 38q-25 6 -65 19l-135 -111q-74 -53 -135 -53q-43 0 -93 25q-12 25 -18 95t-18 101q-23 53 -80 74q-106 -16 -299 -148q-201 -135 -201 -206q25 -78 80 -78q51 0 179 100.5t173 100.5q33 -231 248 -232q147 0 301 107q29 47 90 127zM1309 -23 l-4 -32l-510 1276q-39 47 -181 47q-53 -86 -104 -203l-80 -184q-66 -147 -268 -537q-20 2 -38 2q-56 0 -94 -19q-50 -26 -50 -65q0 -59 98 -92q-12 -35 -31 -82q-12 -31 -12 -41q0 -16 55 -72h16q6 6 11 13q-4 -8 -4 -21q49 2 86 60l61 123q492 0 799 -54q16 -49 49 -112 q53 -100 90 -101q16 0 29 19q18 0 26 2v26q16 4 27 13q13 26 29 34zM967 287l-617 39q0 53 119 249l209 443q27 -27 51 -90q33 -84 39 -94q12 -102 92 -279q91 -198 107 -268z" />
<glyph unicode="&#xc8;" horiz-adv-x="1124" d="M1071 1274q-4 10 -13 28l-14 25q-37 27 -104 27q-45 0 -111 -13l-88 -16q-74 -49 -252 -53q-211 -6 -262 -21q-121 -37 -121 -168q57 -219 95 -508l51 -503q29 -35 54.5 -47.5t53.5 -24.5q61 18 254 37q174 16 279 57q12 29 41 82q-23 41 -31 53q-18 27 -43 39 q-145 -27 -434 -59q-16 27 -16 76q88 0 165 18q133 31 134 103q0 27 -19 59q-51 31 -117 31q-33 0 -92 -10.5t-86 -10.5q-12 111 -39 328q-2 18 -26 119q-20 80 -21 135q115 20 363 47q47 18 166.5 37.5t191.5 48.5q12 37 27 37q-4 29 14 47z" />
<glyph unicode="&#xcc;" horiz-adv-x="413" d="M395 195q-18 547 -67 948q-31 41 -113 47q-49 -70 -49 -137v2q1 0 6 -97q6 -150 51 -753q49 -63 72 -64q10 0 37.5 12.5t54.5 18.5q6 9 8 23z" />
<glyph unicode="&#xd1;" horiz-adv-x="1345" d="M815 1489q-4 14 -13 41l-14 38q-25 6 -65 19l-135 -111q-74 -53 -135 -53q-43 0 -93 25q-12 25 -18 95t-18 101q-23 53 -80 74q-106 -16 -299 -148q-201 -135 -201 -206q25 -78 80 -78q51 0 179 100.5t173 100.5q33 -231 248 -232q147 0 301 107q29 47 90 127zM1282 909 v17q-31 -6 -25 -6q-12 10 -34 45q-27 0 -39 14q-16 -2 -39 -2q-6 -16 -21 -16q-49 -98 -96 -283q-55 -223 -78 -283q-10 0 -14 4q-215 350 -526 705q-59 29 -111 29q-100 0 -119 -97q-47 -590 -125 -1124q0 -31 13.5 -56.5t13.5 -29.5q14 2 41 8q4 -10 12 -27q20 4 33 11 q6 6 13 12t7 16q18 4 27 11q31 66 45 186q10 82 98 868q4 4 64.5 -69.5t64.5 -83.5q113 -125 226 -301l190 -324q8 -4 31 -22q14 -10 35 -11q16 0 45 6q14 14 30 27q20 23 29 74z" />
<glyph unicode="&#xd2;" horiz-adv-x="1005" d="M958 668l-12 92q-8 51 -45 127q-45 92 -88 108q-47 6 -94 6q-219 0 -402 -98q-199 -104 -264 -276q-2 -20 -1 -39q0 -116 65 -185q63 -72 209 -108q84 -8 141 -8q233 0 334 116q87 103 157 265zM784 682q-82 -143 -120 -166q-27 -18 -185 -39q-242 0 -241 88 q0 61 105.5 137t231.5 115q100 0 154 2z" />
<glyph unicode="&#xd5;" horiz-adv-x="1005" d="M1235 1358q-4 14 -13 41l-14 38q-25 6 -65 19l-135 -111q-74 -53 -135 -53q-43 0 -93 25q-12 25 -18 95t-18 101q-23 53 -80 74q-106 -16 -299 -148q-201 -135 -201 -206q25 -78 80 -78q51 0 179 100.5t173 100.5q33 -231 248 -232q147 0 301 107q29 47 90 127zM958 668 l-12 92q-8 51 -45 127q-45 92 -88 108q-47 6 -94 6q-219 0 -402 -98q-199 -104 -264 -276q-2 -20 -1 -39q0 -116 65 -185q63 -72 209 -108q84 -8 141 -8q233 0 334 116q87 103 157 265zM784 682q-82 -143 -120 -166q-27 -18 -185 -39q-242 0 -241 88q0 61 105.5 137 t231.5 115q100 0 154 2z" />
<glyph unicode="&#xd9;" horiz-adv-x="1054" d="M1004 946h-3q-16 86 -45 129q-8 -2 -26 -10q-31 14 -53 14q-72 0 -72 -143q0 -70 14 -143q-35 -215 -53 -271q-41 -129 -135 -194q-72 -29 -129 -29q-113 0 -242 147q-51 92 -61 236q-1 24 -2 61q0 74 6 201q2 56 2 103q0 94 -8 153q-51 51 -88 51q-55 0 -78 -110 q0 -25 -8 -172q-6 -113 -7 -185q0 -397 193 -542v-11q156 -121 301 -120q162 0 313 151h11l28 51h10l21 29q91 182 111 604z" />
<glyph unicode="&#xe0;" horiz-adv-x="854" d="M801 219h-2q0 16 2 29h-13l-36 387q-35 221 -193 338q-41 10 -86 10q-127 0 -258 -65.5t-188 -147.5q-8 -31 -9 -51q0 -55 54 -55q84 0 307 143q27 6 49 6q166 0 166 -383h-44q-148 0 -202 -12q-111 -27 -155 -129q-12 -41 -13 -76q0 -98 90 -143q64 -32 160 -33 q20 0 41 2q131 25 184 53q44 25 146 127zM592 246q-111 -35 -158 -35q-31 0 -63 8v41q45 10 114 10q82 1 107 -24z" />
<glyph unicode="&#xe3;" horiz-adv-x="854" d="M989 1340q-4 14 -13 41l-14 38q-25 6 -65 19l-135 -111q-74 -53 -135 -53q-43 0 -93 25q-12 25 -18 95t-18 101q-23 53 -80 74q-106 -16 -299 -148q-201 -135 -201 -206q25 -78 80 -78q51 0 179 100.5t173 100.5q33 -231 248 -232q147 0 301 107q29 47 90 127zM801 219 h-2q0 16 2 29h-13l-36 387q-35 221 -193 338q-41 10 -86 10q-127 0 -258 -65.5t-188 -147.5q-8 -31 -9 -51q0 -55 54 -55q84 0 307 143q27 6 49 6q166 0 166 -383h-44q-148 0 -202 -12q-111 -27 -155 -129q-12 -41 -13 -76q0 -98 90 -143q64 -32 160 -33q20 0 41 2 q131 25 184 53q44 25 146 127zM592 246q-111 -35 -158 -35q-31 0 -63 8v41q45 10 114 10q82 1 107 -24z" />
<glyph unicode="&#xe8;" horiz-adv-x="593" d="M565 614h-4q-8 55 -10 93q-72 178 -215 178q-111 0 -219 -101q-102 -119 -103 -282q0 -115 56 -199q61 -92 170 -119q74 -2 55 -2q98 0 100 92q-18 53 -71 68q-27 8 -101 8l-18 27q-10 14 -10 37q15 1 31 0q33 0 71 -2q70 -4 82 -4q70 0 106 36q45 45 80 170zM408 655 l-25 -73q-25 -10 -70 -11q-41 0 -157 19q2 39 62.5 91t113.5 52q62 0 76 -78z" />
<glyph unicode="&#xec;" horiz-adv-x="374" d="M358 1149q-2 20 -8 65q-12 0 -14 5q-23 49 -33 59q-15 13 -48 13q-8 0 -17 -1q-55 -53 -56 -112q0 -41 25.5 -69t60.5 -28q55 0 90 68zM338 117v-2q-27 289 -27 456q-35 70 -86 70q-41 0 -84 -41q6 -254 19 -504q29 -86 61 -86q-4 0 92 17q9 41 25 90z" />
<glyph unicode="&#xf1;" horiz-adv-x="976" d="M956 1438q-4 14 -13 41l-14 38q-25 6 -65 19l-135 -111q-74 -53 -135 -53q-43 0 -93 25q-12 25 -18 95t-18 101q-23 53 -80 74q-106 -16 -299 -148q-201 -135 -201 -206q25 -78 80 -78q51 0 179 100.5t173 100.5q33 -231 248 -232q147 0 301 107q29 47 90 127zM932 481 v-2q-14 197 -33 299q-37 190 -108 281q-29 23 -68 22q-57 0 -143 -51l-109 -63v-11q-98 -63 -164 -157l-108 -172q-18 0 -54 45q-29 6 -51 6q-63 0 -71 -88q35 -100 79 -285q49 -209 70 -274q35 -27 57 -27q12 0 80 19q29 55 33 170v180q2 133 23 215q45 86 122 176 q111 129 191 129q72 -152 72 -397v-27q-29 -156 -29 -166q0 -43 20 -84q35 -27 62 -26q57 0 90 120z" />
<glyph unicode="&#xf2;" horiz-adv-x="624" d="M596 391q-10 94 -88 155.5t-170 61.5q-119 0 -170 -100h-8q-47 -92 -54.5 -122t-9.5 -124q51 -94 66 -108q35 -31 123 -31q266 98 311 268zM438 393q-70 -66 -92 -80q-35 -23 -88 -30q-18 29 -18 67q0 49 29.5 89t70.5 40q57 0 98 -86z" />
<glyph unicode="&#xf5;" horiz-adv-x="624" d="M854 965q-4 14 -13 41l-14 38q-25 6 -65 19l-135 -111q-74 -53 -135 -53q-43 0 -93 25q-12 25 -18 95t-18 101q-23 53 -80 74q-106 -16 -299 -148q-201 -135 -201 -206q25 -78 80 -78q51 0 179 100.5t173 100.5q33 -231 248 -232q147 0 301 107q29 47 90 127zM596 391 q-10 94 -88 155.5t-170 61.5q-119 0 -170 -100h-8q-47 -92 -54.5 -122t-9.5 -124q51 -94 66 -108q35 -31 123 -31q266 98 311 268zM438 393q-70 -66 -92 -80q-35 -23 -88 -30q-18 29 -18 67q0 49 29.5 89t70.5 40q57 0 98 -86z" />
<glyph unicode="&#xf9;" horiz-adv-x="1058" d="M1008 543h-2q-10 86 -84 221q-98 176 -117 225q-20 0 -50 5t-40 5q-27 0 -47 -20q-2 -215 -101 -344q-86 -117 -200 -117q-90 0 -151.5 79t-61.5 222q0 43 6 92q-6 59 -41 60q-53 0 -92 -64q-27 -84 -27 -166q0 -176 117 -290q111 -111 264 -111q264 0 401 295h13 q39 -80 47 -92q23 -33 69 -58q97 9 97 58z" />
<glyph unicode="&#x152;" horiz-adv-x="2129" d="M2077 1274q-4 10 -13 28l-14 25q-37 27 -104 27q-45 0 -111 -13l-88 -16q-74 -49 -252 -53q-211 -6 -262 -21q-121 -37 -121 -168q57 -219 95 -508l51 -503q29 -35 54.5 -47.5t53.5 -24.5q61 18 254 37q174 16 279 57q12 29 41 82q-23 41 -31 53q-18 27 -43 39 q-145 -27 -434 -59q-16 27 -16 76q88 0 165 18q133 31 134 103q0 27 -19 59q-51 31 -117 31q-33 0 -92 -10.5t-86 -10.5q-12 111 -39 328q-2 18 -26 119q-20 80 -21 135q115 20 363 47q47 18 166.5 37.5t191.5 48.5q12 37 27 37q-4 29 14 47zM958 668l-12 92q-8 51 -45 127 q-45 92 -88 108q-47 6 -94 6q-219 0 -402 -98q-199 -104 -264 -276q-2 -20 -1 -39q0 -116 65 -185q63 -72 209 -108q84 -8 141 -8q233 0 334 116q87 103 157 265zM784 682q-82 -143 -120 -166q-27 -18 -185 -39q-242 0 -241 88q0 61 105.5 137t231.5 115q100 0 154 2z" />
<glyph unicode="&#x153;" horiz-adv-x="1218" d="M1190 614h-4q-8 55 -10 93q-72 178 -215 178q-111 0 -219 -101q-102 -119 -103 -282q0 -115 56 -199q61 -92 170 -119q74 -2 55 -2q98 0 100 92q-18 53 -71 68q-27 8 -101 8l-18 27q-10 14 -10 37q15 1 31 0q33 0 71 -2q70 -4 82 -4q70 0 106 36q45 45 80 170zM1033 655 l-25 -73q-25 -10 -70 -11q-41 0 -157 19q2 39 62.5 91t113.5 52q62 0 76 -78zM596 391q-10 94 -88 155.5t-170 61.5q-119 0 -170 -100h-8q-47 -92 -54.5 -122t-9.5 -124q51 -94 66 -108q35 -31 123 -31q266 98 311 268zM438 393q-70 -66 -92 -80q-35 -23 -88 -30 q-18 29 -18 67q0 49 29.5 89t70.5 40q57 0 98 -86z" />
<glyph unicode="&#x2dc;" horiz-adv-x="1024" d="M516 357q-4 14 -13 41l-14 38q-25 6 -65 19l-135 -111q-74 -53 -135 -53q-43 0 -93 25q-12 25 -18 95t-18 101q-23 53 -80 74q-106 -16 -299 -148q-201 -135 -201 -206q25 -78 80 -78q51 0 179 100.5t173 100.5q33 -231 248 -232q147 0 301 107q29 47 90 127z" />
<glyph unicode="&#x2000;" horiz-adv-x="1003" />
<glyph unicode="&#x2001;" horiz-adv-x="2009" />
<glyph unicode="&#x2002;" horiz-adv-x="1003" />
<glyph unicode="&#x2003;" horiz-adv-x="2009" />
<glyph unicode="&#x2004;" horiz-adv-x="669" />
<glyph unicode="&#x2005;" horiz-adv-x="501" />
<glyph unicode="&#x2006;" horiz-adv-x="333" />
<glyph unicode="&#x2007;" horiz-adv-x="333" />
<glyph unicode="&#x2008;" horiz-adv-x="249" />
<glyph unicode="&#x2009;" horiz-adv-x="401" />
<glyph unicode="&#x200a;" horiz-adv-x="110" />
<glyph unicode="&#x2010;" d="M846 768h-2q-18 37 -51 45q-14 4 -66 4q-311 -35 -393 -49q-336 -59 -336 -145q0 -35 53 -72q121 10 352 47q248 39 365 51q14 6 45 21q6 6 10.5 43t22.5 55z" />
<glyph unicode="&#x2011;" d="M846 768h-2q-18 37 -51 45q-14 4 -66 4q-311 -35 -393 -49q-336 -59 -336 -145q0 -35 53 -72q121 10 352 47q248 39 365 51q14 6 45 21q6 6 10.5 43t22.5 55z" />
<glyph unicode="&#x2012;" d="M846 768h-2q-18 37 -51 45q-14 4 -66 4q-311 -35 -393 -49q-336 -59 -336 -145q0 -35 53 -72q121 10 352 47q248 39 365 51q14 6 45 21q6 6 10.5 43t22.5 55z" />
<glyph unicode="&#x2013;" horiz-adv-x="1024" d="M205 512v205h614v-205h-614z" />
<glyph unicode="&#x2014;" horiz-adv-x="2048" d="M205 512v205h1638v-205h-1638z" />
<glyph unicode="&#x2018;" horiz-adv-x="452" d="M432 1391q-2 33 -6 47q-6 27 -27 53q-4 0 -71 -12q-311 -311 -312 -547q94 -176 230 -176v8h20q0 8 19 33q16 109 -90 161q-4 8 -5 19q0 45 103 192q119 173 139 222z" />
<glyph unicode="&#x2019;" horiz-adv-x="473" d="M451 1114q-2 18 -5.5 54t-5.5 53q-158 123 -252 122q-20 0 -38 -6q-43 -53 -44 -88q0 -37 54 -66l106 -59q-14 -78 -69 -176q-76 -139 -80 -147q-6 -47 21.5 -82t60.5 -35q29 0 37 31q25 0 116 184q76 156 99 215z" />
<glyph unicode="&#x201c;" horiz-adv-x="724" d="M690 1171q-20 74 -59 74q-18 0 -58.5 -23.5t-58.5 -23.5q0 -12 -34 -47t-40 -39q-76 -164 -75 -244q0 -121 147 -209q84 16 84 86q0 53 -53 117q-4 16 -4 33q0 61 59 137q76 96 92 139zM440 1436h-2q-16 94 -69 94q-74 0 -209 -172q-98 -125 -131 -189q-20 -63 -21 -116 q0 -76 43 -146q109 -88 148 -88q59 0 59 154q-43 33 -51 41q-18 16 -35 51l57 104q45 78 86 109q2 4 66 68q43 41 59 90z" />
<glyph unicode="&#x201d;" horiz-adv-x="841" d="M801 1190q-14 59 -25 131q-68 104 -92 133q-57 70 -129 96q-94 -25 -94 -75q0 -53 86 -115q68 -92 67 -160q0 -41 -28 -95l-60 -108q27 -63 70 -63q53 0 145 110h9q6 21 51 146zM389 1051h-6q-2 29 -2 88q-37 133 -133 210.5t-234 77.5q-4 -6 -4 -14q-18 -6 -14 -6v-8 q-4 -4 -8 -6q-4 -18 -4 -33q0 -86 141 -119q82 -82 82 -170q0 -55 -44 -147.5t-44 -132.5q0 -29 12 -54h14q0 -12 2 -16q12 2 29 -5t21 -18q53 0 118 138q56 117 74 215z" />
<glyph unicode="&#x2026;" horiz-adv-x="835" d="M823 98v-2q-10 55 -16 70q-12 27 -49 55q-88 0 -105 -33q-8 -14 -8 -98q68 -55 90 -55q39 0 88 63zM545 98v-2q-10 55 -16 70q-12 27 -49 55q-88 0 -105 -33q-8 -14 -8 -98q68 -55 90 -55q39 0 88 63zM266 98v-2q-10 55 -16 70q-12 27 -49 55q-88 0 -105 -33 q-8 -14 -8 -98q68 -55 90 -55q39 0 88 63z" />
<glyph unicode="&#x202f;" horiz-adv-x="401" />
<glyph unicode="&#x2039;" horiz-adv-x="905" d="M707 1196q-12 49 -32 67.5t-67 18.5q-47 -31 -155 -123q-121 -98 -121 -112q-86 -90 -219 -203q-23 -35 -23 -72q0 -66 84 -160q115 -129 125 -145h10q0 -12 111 -129q96 -104 133 -139q10 0 30.5 -3t30.5 -6q82 16 82 64q0 53 -113.5 168t-113.5 131q-33 8 -107 111 q-72 96 -71 114q43 47 149 137q16 35 133 123q111 84 134 158z" />
<glyph unicode="&#x203a;" horiz-adv-x="919" d="M877 664q-6 84 -37 145q-168 109 -496 301v10q-23 0 -104 54q-92 59 -105 63q-76 -45 -76 -80q0 -16 13 -53q78 -70 227 -166l244 -160q143 -27 143 -127q0 -45 -31 -116l-51 -119l-80 -142q-53 -98 -53 -155q0 -59 57 -82v-14q25 12 68 26v-12q23 10 72 117h8 q20 57 100 241q70 163 101 269z" />
<glyph unicode="&#x205f;" horiz-adv-x="501" />
<glyph unicode="&#x2122;" horiz-adv-x="3080" d="M3007 508q-68 459 -197 735q-27 37 -63 37q-74 0 -195 -160l-131 -178q-27 53 -67 170q-55 164 -62 178q-59 96 -117 96q-86 0 -163 -208q-4 -12 -80 -271l-312 -727q8 -68 24.5 -81t94.5 -13q109 98 207 387q113 334 180 434q12 57 15 70q14 45 38 82q31 -31 84 -219 q45 -156 113 -156q55 0 139 84q74 86 170 219h21l74 -203l24 -231q16 -96 109 -96q27 0 61 6v24h19q0 3 14 21zM1446 1333l-2 -2q-35 72 -107 72q-23 0 -71.5 -10.5t-71.5 -10.5q-334 -88 -1059 -208q-82 -31 -102 -44q-35 -20 -35 -49t31 -80q16 -16 71 -16q84 0 321.5 47 t283.5 47q45 -186 73 -463q23 -223 43 -448q16 -141 72 -141q25 0 59 22q12 -4 39 -4q10 29 10 74q0 8 -26 233q-14 154 -49 461l-49 307q211 45 485 111l55 40q29 21 29 62z" />
<glyph unicode="&#xe000;" horiz-adv-x="1200" d="M0 1200h1200v-1200h-1200v1200z" />
<glyph unicode="&#xfb01;" horiz-adv-x="1601" d="M1585 1149q-2 20 -8 65q-12 0 -14 5q-23 49 -33 59q-15 13 -48 13q-8 0 -17 -1q-55 -53 -56 -112q0 -41 25.5 -69t60.5 -28q55 0 90 68zM1565 117v-2q-27 289 -27 456q-35 70 -86 70q-41 0 -84 -41q6 -254 19 -504q29 -86 61 -86q-4 0 92 17q9 41 25 90zM1169 1223v-6 q-27 135 -168 210q-121 68 -282 68q-129 0 -219 -43q-162 -119 -262 -410q-27 -98 -84 -290q-92 -451 -115 -729q12 -20 41 -54q43 -20 72 -20q68 0 77 143q12 166 37 191q141 -16 447 -37q14 14 45 41q-14 55 -23 104l-203 43q-178 14 -200 19q-53 12 -53 49q0 25 26 110 q37 119 57 207l76 228q51 141 115 213q82 94 197 94q74 0 163 -39q16 -12 88 -80q45 -43 82 -43t86 31z" />
<glyph unicode="&#xfb02;" horiz-adv-x="1751" d="M1727 16v-10q-14 84 -68 103q-18 6 -125 8q-10 12 -10 73q0 82 20 291q27 240 29 275q18 317 19 385q0 223 -41 289q-37 23 -66 22q-92 0 -92 -224v-20v-23q0 -178 -29 -491q-33 -344 -33 -493q0 -121 15 -224q63 -43 182 -43q100 0 168 35q11 14 31 47zM1169 1223v-6 q-27 135 -168 210q-121 68 -282 68q-129 0 -219 -43q-162 -119 -262 -410q-27 -98 -84 -290q-92 -451 -115 -729q12 -20 41 -54q43 -20 72 -20q68 0 77 143q12 166 37 191q141 -16 447 -37q14 14 45 41q-14 55 -23 104l-203 43q-178 14 -200 19q-53 12 -53 49q0 25 26 110 q37 119 57 207l76 228q51 141 115 213q82 94 197 94q74 0 163 -39q16 -12 88 -80q45 -43 82 -43t86 31z" />
<glyph unicode="&#xfb03;" horiz-adv-x="2828" d="M2812 1149q-2 20 -8 65q-12 0 -14 5q-23 49 -33 59q-15 13 -48 13q-8 0 -17 -1q-55 -53 -56 -112q0 -41 25.5 -69t60.5 -28q55 0 90 68zM2792 117v-2q-27 289 -27 456q-35 70 -86 70q-41 0 -84 -41q6 -254 19 -504q29 -86 61 -86q-4 0 92 17q9 41 25 90zM2396 1223v-6 q-27 135 -168 210q-121 68 -282 68q-129 0 -219 -43q-162 -119 -262 -410q-27 -98 -84 -290q-92 -451 -115 -729q12 -20 41 -54q43 -20 72 -20q68 0 77 143q12 166 37 191q141 -16 447 -37q14 14 45 41q-14 55 -23 104l-203 43q-178 14 -200 19q-53 12 -53 49q0 25 26 110 q37 119 57 207l76 228q51 141 115 213q82 94 197 94q74 0 163 -39q16 -12 88 -80q45 -43 82 -43t86 31zM1169 1223v-6q-27 135 -168 210q-121 68 -282 68q-129 0 -219 -43q-162 -119 -262 -410q-27 -98 -84 -290q-92 -451 -115 -729q12 -20 41 -54q43 -20 72 -20 q68 0 77 143q12 166 37 191q141 -16 447 -37q14 14 45 41q-14 55 -23 104l-203 43q-178 14 -200 19q-53 12 -53 49q0 25 26 110q37 119 57 207l76 228q51 141 115 213q82 94 197 94q74 0 163 -39q16 -12 88 -80q45 -43 82 -43t86 31z" />
<glyph unicode="&#xfb04;" horiz-adv-x="2977" d="M2954 16v-10q-14 84 -68 103q-18 6 -125 8q-10 12 -10 73q0 82 20 291q27 240 29 275q18 317 19 385q0 223 -41 289q-37 23 -66 22q-92 0 -92 -224v-20v-23q0 -178 -29 -491q-33 -344 -33 -493q0 -121 15 -224q63 -43 182 -43q100 0 168 35q11 14 31 47zM2396 1223v-6 q-27 135 -168 210q-121 68 -282 68q-129 0 -219 -43q-162 -119 -262 -410q-27 -98 -84 -290q-92 -451 -115 -729q12 -20 41 -54q43 -20 72 -20q68 0 77 143q12 166 37 191q141 -16 447 -37q14 14 45 41q-14 55 -23 104l-203 43q-178 14 -200 19q-53 12 -53 49q0 25 26 110 q37 119 57 207l76 228q51 141 115 213q82 94 197 94q74 0 163 -39q16 -12 88 -80q45 -43 82 -43t86 31zM1169 1223v-6q-27 135 -168 210q-121 68 -282 68q-129 0 -219 -43q-162 -119 -262 -410q-27 -98 -84 -290q-92 -451 -115 -729q12 -20 41 -54q43 -20 72 -20 q68 0 77 143q12 166 37 191q141 -16 447 -37q14 14 45 41q-14 55 -23 104l-203 43q-178 14 -200 19q-53 12 -53 49q0 25 26 110q37 119 57 207l76 228q51 141 115 213q82 94 197 94q74 0 163 -39q16 -12 88 -80q45 -43 82 -43t86 31z" />
</font>
</defs>
</svg>
